<?xml version="1.0" standalone="no"?>
<!DOCTYPE svg PUBLIC "-//W3C//DTD SVG 20010904//EN"
 "http://www.w3.org/TR/2001/REC-SVG-20010904/DTD/svg10.dtd">
<svg version="1.0" xmlns="http://www.w3.org/2000/svg"
 width="512.000000pt" height="512.000000pt" viewBox="0 0 512.000000 512.000000"
 preserveAspectRatio="xMidYMid meet">

<g transform="translate(0.000000,512.000000) scale(0.100000,-0.100000)"
fill="#ffffff" stroke="none">
<path d="M4525 4927 c-22 -8 -54 -21 -70 -29 -40 -21 -117 -105 -134 -145
l-13 -33 -1437 0 -1436 0 -370 -370 -370 -370 0 -701 0 -701 24 -19 c32 -26
73 -24 99 4 l22 23 0 641 0 641 248 4 c275 4 287 7 364 76 23 20 52 60 64 87
23 48 24 60 24 293 l0 242 1375 0 1375 0 0 -1267 0 -1268 107 -230 c59 -127
119 -243 135 -260 25 -26 35 -30 83 -30 48 0 58 4 83 30 16 17 76 133 136 261
l106 230 -2 1330 -3 1329 -23 51 c-29 64 -102 137 -167 165 -61 27 -164 34
-220 16z m192 -173 c57 -47 73 -86 73 -181 l0 -83 -176 0 -176 0 4 94 c3 87 5
97 33 132 45 55 89 76 153 71 39 -3 61 -11 89 -33z m-3339 -661 c-7 -15 -26
-36 -41 -47 -26 -19 -45 -21 -203 -24 -96 -2 -174 0 -174 5 0 4 96 104 213
221 l212 212 3 -171 c2 -122 -1 -178 -10 -196z m3412 172 l0 -75 -175 0 -175
0 0 75 0 75 175 0 175 0 0 -75z m0 -1210 l0 -985 -84 -181 c-46 -99 -87 -180
-91 -180 -4 0 -45 81 -91 180 l-84 181 0 985 0 985 175 0 175 0 0 -985z"/>
<path d="M1690 4430 c-40 -40 -16 -112 42 -126 22 -5 33 0 58 24 35 36 38 60
9 96 -26 33 -79 36 -109 6z"/>
<path d="M2480 4430 c-40 -40 -16 -112 42 -126 22 -5 33 0 58 24 35 36 38 60
9 96 -26 33 -79 36 -109 6z"/>
<path d="M3270 4430 c-40 -40 -16 -112 42 -126 22 -5 33 0 58 24 35 36 38 60
9 96 -26 33 -79 36 -109 6z"/>
<path d="M4060 4430 c-40 -40 -16 -112 42 -126 22 -5 33 0 58 24 35 36 38 60
9 96 -26 33 -79 36 -109 6z"/>
<path d="M3736 3900 c-67 -20 -96 -77 -96 -186 l0 -62 -128 -3 c-185 -6 -213
-29 -220 -179 l-4 -88 -127 -4 c-182 -5 -211 -28 -219 -173 l-4 -83 -127 -4
c-137 -3 -163 -12 -198 -65 -16 -23 -18 -57 -21 -238 -4 -259 0 -289 43 -332
l33 -33 691 0 c759 0 734 -2 766 60 13 25 15 117 15 674 l0 644 -26 31 c-14
17 -42 35 -62 41 -44 12 -275 12 -316 0z m254 -720 l0 -580 -100 0 -100 0 0
573 c0 316 3 577 7 580 3 4 48 7 100 7 l93 0 0 -580z m-350 -130 l0 -450 -100
0 -100 0 0 443 c0 244 3 447 7 450 3 4 48 7 100 7 l93 0 0 -450z m-350 -135
l0 -315 -100 0 -100 0 0 308 c0 170 3 312 7 315 3 4 48 7 100 7 l93 0 0 -315z
m-350 -130 l0 -185 -100 0 -100 0 0 178 c0 98 3 182 7 185 3 4 48 7 100 7 l93
0 0 -185z"/>
<path d="M1255 3635 c-14 -13 -25 -36 -25 -50 0 -35 42 -75 79 -75 35 0 71 39
71 77 0 32 -42 73 -75 73 -14 0 -37 -11 -50 -25z"/>
<path d="M1466 3639 c-33 -26 -36 -79 -6 -109 19 -19 33 -20 460 -20 427 0
441 1 460 20 33 33 30 75 -6 108 l-25 22 -428 0 c-418 0 -429 0 -455 -21z"/>
<path d="M1186 3299 c-33 -26 -36 -79 -6 -109 20 -20 33 -20 600 -20 567 0
580 0 600 20 33 33 30 75 -6 108 l-25 22 -568 0 c-560 0 -569 0 -595 -21z"/>
<path d="M1186 2959 c-33 -26 -36 -79 -6 -109 18 -18 33 -20 139 -20 117 0
120 1 140 26 28 35 26 69 -4 99 -23 24 -31 25 -133 25 -95 0 -113 -3 -136 -21z"/>
<path d="M1603 2968 c-48 -23 -51 -103 -4 -127 12 -7 104 -11 240 -11 208 0
222 1 241 20 30 30 27 83 -6 109 -25 20 -39 21 -238 20 -126 0 -220 -5 -233
-11z"/>
<path d="M2205 2955 c-14 -13 -25 -36 -25 -50 0 -35 42 -75 79 -75 35 0 71 39
71 77 0 32 -42 73 -75 73 -14 0 -37 -11 -50 -25z"/>
<path d="M1205 2660 c-61 -30 -92 -85 -100 -178 -10 -124 -13 -132 -51 -148
l-34 -14 -86 69 c-92 75 -136 91 -206 76 -47 -10 -314 -274 -330 -326 -20 -70
-4 -118 73 -213 l69 -86 -14 -34 c-16 -38 -24 -41 -148 -51 -93 -8 -148 -39
-178 -101 -18 -36 -20 -62 -20 -224 0 -162 2 -188 20 -224 30 -62 85 -93 178
-101 124 -10 132 -13 148 -51 l14 -34 -69 -86 c-54 -67 -72 -96 -77 -129 -12
-82 -2 -100 145 -249 75 -76 150 -145 168 -152 72 -31 132 -12 240 77 l72 60
35 -15 c38 -16 41 -24 51 -148 8 -93 39 -148 101 -178 36 -18 62 -20 222 -20
192 0 220 5 265 48 42 39 54 69 61 147 12 131 14 135 52 151 l35 15 72 -60
c108 -89 168 -108 240 -77 18 7 92 75 166 150 l134 136 1011 2 1011 3 57 28
c32 16 73 47 93 70 57 66 65 110 65 359 l0 219 -25 24 c-31 32 -69 32 -100 0
-25 -24 -25 -24 -25 -235 0 -231 -6 -261 -56 -295 -28 -19 -56 -20 -1024 -23
l-995 -2 -73 90 -72 90 14 34 c16 38 21 40 151 52 82 7 131 31 165 81 24 35
25 43 28 230 3 182 2 197 -18 239 -30 60 -83 90 -175 99 -130 11 -135 13 -151
51 l-15 35 60 72 c89 108 108 168 77 240 -7 18 -76 93 -152 168 -149 147 -167
157 -249 145 -33 -5 -62 -23 -129 -77 l-86 -69 -34 14 c-38 16 -41 24 -51 148
-8 93 -39 148 -101 178 -36 18 -62 20 -225 20 -164 0 -188 -2 -224 -20z m390
-140 c3 -5 12 -66 19 -136 8 -79 18 -130 27 -139 8 -7 58 -31 111 -54 76 -32
102 -39 120 -32 13 5 64 43 113 85 50 42 94 76 100 76 13 0 235 -222 235 -235
0 -5 -34 -50 -76 -100 -42 -49 -80 -100 -85 -113 -7 -18 0 -44 32 -120 23 -53
47 -103 54 -111 9 -9 60 -19 139 -27 70 -7 131 -16 136 -19 13 -8 13 -322 0
-330 -5 -3 -66 -12 -136 -19 -79 -8 -130 -18 -139 -27 -7 -8 -31 -58 -54 -111
-32 -76 -39 -102 -32 -120 5 -13 43 -63 85 -113 42 -49 76 -94 76 -100 0 -13
-222 -235 -235 -235 -5 0 -50 34 -100 76 -49 42 -100 80 -113 85 -18 7 -44 0
-120 -32 -53 -23 -103 -47 -111 -54 -9 -9 -19 -60 -27 -139 -7 -70 -16 -131
-19 -136 -8 -13 -322 -13 -330 0 -3 5 -12 66 -19 135 -7 68 -18 131 -25 139
-6 7 -26 20 -44 26 -18 7 -62 26 -99 42 -51 21 -72 26 -90 19 -13 -5 -63 -43
-113 -85 -49 -42 -94 -76 -100 -76 -12 0 -235 221 -235 234 0 5 18 31 40 58
22 26 59 70 81 98 24 28 42 60 42 74 0 28 -68 194 -88 215 -9 9 -60 19 -139
27 -70 7 -131 16 -136 19 -13 8 -13 322 0 330 5 3 66 12 136 19 79 8 130 18
139 27 20 21 87 187 88 215 0 14 -18 46 -42 74 -22 28 -59 72 -81 98 -22 27
-40 52 -40 57 0 13 222 235 235 235 5 0 51 -34 100 -76 101 -85 119 -95 155
-83 55 17 176 71 189 84 9 8 19 60 27 139 7 70 16 131 19 136 8 13 322 13 330
0z"/>
<path d="M1271 2035 c-220 -62 -388 -231 -446 -450 -21 -77 -21 -231 0 -310
50 -192 191 -351 380 -427 77 -32 85 -33 225 -33 140 0 148 1 225 32 161 66
294 198 357 358 27 69 32 96 36 195 3 86 0 132 -12 178 -19 74 -61 167 -87
193 -24 24 -81 25 -101 2 -31 -36 -30 -58 9 -139 38 -78 38 -80 38 -205 0
-125 0 -125 -38 -203 -178 -359 -676 -359 -854 0 -38 78 -38 78 -38 204 0 126
0 126 38 204 50 101 124 174 226 223 66 32 88 38 165 41 109 6 182 -9 264 -54
74 -40 104 -42 137 -9 59 58 7 120 -151 181 -59 23 -87 28 -194 30 -90 3 -140
0 -179 -11z"/>
<path d="M1310 1733 c-29 -11 -66 -38 -106 -77 -71 -72 -94 -126 -94 -226 0
-100 23 -154 94 -226 72 -71 126 -94 226 -94 100 0 154 23 226 94 71 72 94
126 94 226 0 100 -23 154 -94 226 -43 42 -76 66 -110 77 -62 21 -176 21 -236
0z m211 -156 c55 -37 79 -81 79 -147 0 -102 -68 -170 -170 -170 -102 0 -170
68 -170 170 0 102 68 170 170 170 43 0 65 -6 91 -23z"/>
<path d="M2895 2035 c-14 -13 -25 -36 -25 -50 0 -33 42 -75 75 -75 33 0 75 42
75 75 0 33 -42 75 -75 75 -14 0 -37 -11 -50 -25z"/>
<path d="M3107 2048 c-40 -31 -36 -115 8 -132 9 -3 211 -6 449 -6 l433 0 21
23 c29 31 29 77 -1 105 -23 22 -25 22 -458 22 -333 0 -439 -3 -452 -12z"/>
<path d="M2827 1708 c-40 -31 -36 -115 8 -132 9 -3 274 -6 589 -6 l573 0 21
23 c29 31 29 77 -1 105 l-23 22 -575 0 c-445 0 -579 -3 -592 -12z"/>
<path d="M2827 1368 c-40 -31 -36 -115 8 -132 9 -3 66 -6 126 -6 103 0 111 1
134 25 14 13 25 36 25 50 0 14 -11 37 -25 50 -23 24 -30 25 -138 25 -75 0
-119 -4 -130 -12z"/>
<path d="M3225 1355 c-14 -13 -25 -36 -25 -50 0 -14 11 -37 25 -50 l24 -25
219 0 c207 0 221 1 246 21 19 15 26 30 26 54 0 24 -7 39 -26 54 -25 20 -39 21
-246 21 l-219 0 -24 -25z"/>
<path d="M3845 1355 c-14 -13 -25 -36 -25 -50 0 -33 42 -75 75 -75 33 0 75 42
75 75 0 33 -42 75 -75 75 -14 0 -37 -11 -50 -25z"/>
</g>
</svg>
